<mxfile host="app.diagrams.net" modified="2020-11-07T17:41:14.175Z" agent="5.0 (X11; Linux x86_64) AppleWebKit/537.36 (KHTML, like Gecko) Chrome/86.0.4240.75 Safari/537.36" etag="oTJ-K2iQhj-dfHecYiw4" version="13.9.2" type="github">
  <diagram id="8TV5qz5o5fN_yPOZKMpX" name="Page-1">
    <mxGraphModel dx="1422" dy="706" grid="1" gridSize="10" guides="1" tooltips="1" connect="1" arrows="1" fold="1" page="1" pageScale="1" pageWidth="827" pageHeight="1169" math="0" shadow="0">
      <root>
        <mxCell id="0" />
        <mxCell id="1" parent="0" />
        <mxCell id="QfDgRWVAYuh59e0YdA0v-1" value="El alimento nos abre la puerta a un universo infinito de creatividad y conexión con la vida, compartir este vínculo me mantiene plena." style="rounded=0;whiteSpace=wrap;html=1;" parent="1" vertex="1">
          <mxGeometry x="74" y="1020" width="680" height="60" as="geometry" />
        </mxCell>
        <mxCell id="QfDgRWVAYuh59e0YdA0v-15" value="Foto Amalia" style="whiteSpace=wrap;html=1;aspect=fixed;" parent="1" vertex="1">
          <mxGeometry x="80" y="30" width="200" height="200" as="geometry" />
        </mxCell>
        <mxCell id="QfDgRWVAYuh59e0YdA0v-16" value="El alimento nos abre la puerta a un universo infinito de creatividad y conexión con la vida, compartir este vínculo me mantiene plena." style="whiteSpace=wrap;html=1;" parent="1" vertex="1">
          <mxGeometry x="360" y="70" width="380" height="60" as="geometry" />
        </mxCell>
        <mxCell id="QfDgRWVAYuh59e0YdA0v-20" value="Cocinera colombiana con más de 20 años de experiencia con formación en el SENA y en IAG en Buenos Aires, Argentina. La comida es el lenguaje a través del cual comunica su amor. Trabajó como cocinara televisiva para el canal Utilísima durante 2 años, docente de la Colegiatura Colombiana y fundadora del Restaurante Verdeo en Medellín. Desde hace más de 10 años ha explorado y estudiado el mundo de la cocina consciente donde busca que el alimento llegue más allá de los sentidos y nutra también las emociones, mente y espíritu. Actualmente desarrolla proyectos educativos para generar confianza con los alimentos y despertar el sentido de unidad a través de ellos." style="whiteSpace=wrap;html=1;strokeColor=#000000;fillColor=white;" parent="1" vertex="1">
          <mxGeometry x="80" y="250" width="680" height="120" as="geometry" />
        </mxCell>
        <mxCell id="QfDgRWVAYuh59e0YdA0v-21" value="foto" style="whiteSpace=wrap;html=1;aspect=fixed;strokeColor=#000000;fillColor=white;" parent="1" vertex="1">
          <mxGeometry x="80" y="390" width="200" height="200" as="geometry" />
        </mxCell>
        <mxCell id="QfDgRWVAYuh59e0YdA0v-22" value="foto" style="whiteSpace=wrap;html=1;aspect=fixed;strokeColor=#000000;fillColor=white;" parent="1" vertex="1">
          <mxGeometry x="320" y="390" width="200" height="200" as="geometry" />
        </mxCell>
        <mxCell id="QfDgRWVAYuh59e0YdA0v-23" value="foto" style="whiteSpace=wrap;html=1;aspect=fixed;strokeColor=#000000;fillColor=white;" parent="1" vertex="1">
          <mxGeometry x="560" y="390" width="200" height="200" as="geometry" />
        </mxCell>
        <mxCell id="QfDgRWVAYuh59e0YdA0v-25" value="Cocinera colombiana con más de 20 años de experiencia con formación en el SENA y en IAG en Buenos Aires, Argentina. La comida es el lenguaje a través del cual comunica su amor. Trabajó como cocinara televisiva para el canal Utilísima durante 2 años, docente de la Colegiatura Colombiana y fundadora del Restaurante Verdeo en Medellín. Desde hace más de 10 años ha explorado y estudiado el mundo de la cocina consciente donde busca que el alimento llegue más allá de los sentidos y nutra también las emociones, mente y espíritu. Actualmente desarrolla proyectos educativos para generar confianza con los alimentos y despertar el sentido de unidad a través de ellos.Actualmente soy desarrolladora de proyectos educativos, especializada en cocina consciente para la transformación de la energía." style="whiteSpace=wrap;html=1;" parent="1" vertex="1">
          <mxGeometry x="80" y="630" width="680" height="140" as="geometry" />
        </mxCell>
        <mxCell id="QfDgRWVAYuh59e0YdA0v-26" value="foto" style="whiteSpace=wrap;html=1;aspect=fixed;" parent="1" vertex="1">
          <mxGeometry x="80" y="800" width="200" height="200" as="geometry" />
        </mxCell>
        <mxCell id="QfDgRWVAYuh59e0YdA0v-27" value="foto" style="whiteSpace=wrap;html=1;aspect=fixed;" parent="1" vertex="1">
          <mxGeometry x="320" y="800" width="200" height="200" as="geometry" />
        </mxCell>
        <mxCell id="QfDgRWVAYuh59e0YdA0v-28" value="foto" style="whiteSpace=wrap;html=1;aspect=fixed;" parent="1" vertex="1">
          <mxGeometry x="560" y="800" width="200" height="200" as="geometry" />
        </mxCell>
      </root>
    </mxGraphModel>
  </diagram>
</mxfile>
